<?xml version="1.0" encoding="UTF-8"?>
<svg xmlns="http://www.w3.org/2000/svg" xmlns:xlink="http://www.w3.org/1999/xlink" version="1.1" viewBox="0 0 68.291 36.154">
  <!-- Generator: Adobe Illustrator 29.7.1, SVG Export Plug-In . SVG Version: 2.1.1 Build 8)  -->
  <defs>
    <style>
      .st0 {
        mask: url(#mask);
      }

      .st1 {
        fill: #f34971;
      }

      .st1, .st2, .st3, .st4 {
        display: none;
      }

      .st5 {
        filter: url(#luminosity-noclip);
      }

      .st6 {
        fill: #fdb52a;
      }

      .st7 {
        isolation: isolate;
      }

      .st2 {
        fill: url(#Degradado_sin_nombre_169);
      }

      .st8 {
        fill: #fff;
      }

      .st3 {
        fill: url(#Degradado_sin_nombre_108);
        opacity: .5;
      }

      .st4 {
        fill: url(#Degradado_sin_nombre_168);
        mix-blend-mode: screen;
      }
    </style>
    <filter id="luminosity-noclip" x="-.117" y="0" width="68.181" height="36.154" color-interpolation-filters="sRGB" filterUnits="userSpaceOnUse">
      <feFlood flood-color="#fff" result="bg"/>
      <feBlend in="SourceGraphic" in2="bg"/>
    </filter>
    <mask id="mask" x="-.117" y="0" width="68.181" height="36.154" maskUnits="userSpaceOnUse">
      <g class="st5">
        <path d="M.117,28.673c11.309-.249,22.859-2.368,33.436-6.281,10.384-3.811,19.864-9.647,27.384-17.696,0,0,7.127,7.015,7.127,7.015-6.765,6.488-14.918,11.461-23.679,14.692C30.205,31.653,14.83,33.191-.117,31.291c0,0,.234-2.619.234-2.619H.117Z"/>
      </g>
    </mask>
    <linearGradient id="Degradado_sin_nombre_169" data-name="Degradado sin nombre 169" x1="42.171" y1="49.673" x2="34.655" y2="22.768" gradientUnits="userSpaceOnUse">
      <stop offset="0" stop-color="#8f9aff"/>
      <stop offset=".294" stop-color="#7964ff"/>
      <stop offset=".409" stop-color="#6f58ea"/>
      <stop offset=".642" stop-color="#5739b6"/>
      <stop offset=".778" stop-color="#482695"/>
      <stop offset="1" stop-color="#2b0063"/>
    </linearGradient>
    <linearGradient id="Degradado_sin_nombre_168" data-name="Degradado sin nombre 168" x1="36.312" y1="38.629" x2="36.312" y2="3.71" gradientUnits="userSpaceOnUse">
      <stop offset="0" stop-color="#7964ff" stop-opacity="0"/>
      <stop offset=".146" stop-color="#7a65f7" stop-opacity=".111"/>
      <stop offset=".446" stop-color="#7d67e2" stop-opacity=".397"/>
      <stop offset=".87" stop-color="#836cc2" stop-opacity=".853"/>
      <stop offset="1" stop-color="#856eb8"/>
    </linearGradient>
    <radialGradient id="Degradado_sin_nombre_108" data-name="Degradado sin nombre 108" cx="64.23" cy="6.021" fx="64.23" fy="6.021" r="6.262" gradientUnits="userSpaceOnUse">
      <stop offset=".109" stop-color="#ffab40"/>
      <stop offset="1" stop-color="#dd2c00"/>
    </radialGradient>
  </defs>
  <g class="st7">
    <g id="Layer_1">
      <g>
        <g class="st0">
          <g>
            <path class="st8" d="M17.996,36.154h-5.998l4.54-16.944c.708-2.641,3.422-4.782,6.063-4.782h5.998l-4.54,16.944c-.708,2.641-3.422,4.782-6.063,4.782ZM38.777,31.372L47.183,0h-5.998c-2.641,0-5.355,2.141-6.063,4.782l-8.406,31.372h5.998c2.641,0,5.355-2.141,6.063-4.782ZM53.496,31.372l7.133-26.62h-5.998c-2.641,0-5.355,2.141-6.063,4.782l-7.133,26.62h5.998c2.641,0,5.355-2.141,6.063-4.782Z"/>
            <path class="st2" d="M45.444,21.135l-4.026,15.019h5.996c2.642,0,5.358-2.142,6.064-4.784l4.892-18.258c-3.933,3.258-8.347,5.892-12.926,8.023ZM29.101,27.198l-2.399,8.955h5.996c2.642,0,5.355-2.142,6.064-4.784l2.026-7.56c-3.952,1.429-7.911,2.534-11.687,3.388ZM13.682,29.799l-1.702,6.355h6c2.638,0,5.355-2.142,6.06-4.784l.795-2.959c-4.261.728-8.094,1.146-11.153,1.388Z"/>
            <path class="st4" d="M54.63,4.75c-2.642,0-5.355,2.142-6.064,4.78l-7.135,26.62h.985l6.881-25.684c.709-2.638,3.422-4.78,6.064-4.78h5.015l.25-.937h-5.996ZM41.185,0c-2.642,0-5.358,2.138-6.064,4.78l-8.407,31.37h.981l8.157-30.434c.709-2.642,3.422-4.784,6.064-4.784h5.015l.25-.933h-5.996ZM22.599,14.426c-2.642,0-5.355,2.142-6.064,4.784l-4.537,16.941h.981l4.291-16.004c.705-2.642,3.422-4.784,6.06-4.784h5.019l.25-.937h-6Z"/>
          </g>
        </g>
        <path class="st6" d="M0,29.982c22.701.708,47.293-6.124,62.719-23.533,0,0,3.563,3.507,3.563,3.507C48.501,26.04,23.405,31.504,0,29.982h0Z"/>
        <circle class="st6" cx="64.926" cy="7.915" r="3.365"/>
        <circle class="st3" cx="64.926" cy="7.915" r="2.745"/>
        <circle class="st1" cx="64.926" cy="7.915" r="2.051"/>
      </g>
    </g>
  </g>
</svg>