<?xml version="1.0" encoding="UTF-8"?>
<svg id="Layer_1" xmlns="http://www.w3.org/2000/svg" version="1.1" viewBox="0 0 37.16 27.107">
  <!-- Generator: Adobe Illustrator 29.7.1, SVG Export Plug-In . SVG Version: 2.1.1 Build 8)  -->
  <defs>
    <style>
      .st0 {
        fill: #fff;
      }
    </style>
  </defs>
  <path class="st0" d="M13.22,24.138l.71.71c1.46,1.46,3.4,2.26,5.46,2.26s4-.8,5.46-2.26c.04-.04.08-.08.11-.12,3.01,2.15,7.23,1.87,9.93-.83h.01c1.45-1.45,2.26-3.39,2.26-5.46s-.81-4-2.26-5.46L24.17,2.258c-3.01-3.01-7.91-3.01-10.92,0-1,1-1.67,2.21-2,3.49-1.31.33-2.52,1.02-3.5,2-.98.99-1.67,2.19-2,3.5-1.28.33-2.49,1-3.49,2-1.51,1.51-2.26,3.48-2.26,5.46s.75,3.96,2.26,5.46l.09.09c1.45,1.4,3.35,2.18,5.37,2.18,2.07,0,4.01-.81,5.46-2.26l.04-.04ZM3.86,22.487c-2.06-2.11-2.05-5.51.04-7.6.48-.48,1.03-.85,1.62-1.1.37-.18.75-.3,1.14-.37.39-.08.78-.11,1.17-.11,1.32.03,2.64.54,3.65,1.52l.06.07c1.02,1.02,1.58,2.37,1.58,3.81,0,.61-.1,1.2-.29,1.75-.13.39-.31.77-.53,1.12-.21.33-.45.64-.73.92-.01.01-.02.02-.03.03-1.02,1.02-2.38,1.58-3.82,1.58s-2.79-.56-3.81-1.58l-.05-.04ZM9.4,9.397c.48-.48,1.02-.85,1.62-1.11.36-.17.75-.29,1.14-.37.35-.07.7-.1,1.06-.1.03,0,.07,0,.1.01,1.4.02,2.71.57,3.71,1.57l6.18,6.17c1.02,1.02,1.58,2.38,1.58,3.82,0,.6-.1,1.2-.29,1.75-.13.4-.31.77-.54,1.12-.2.33-.44.63-.72.91-.01.01-.02.02-.03.03-1.02,1.02-2.38,1.59-3.82,1.59s-2.8-.56-3.82-1.59l-.97-.97c.56-1.08.85-2.27.85-3.52,0-2.02-.78-3.92-2.18-5.37l-.09-.09c-1.36-1.36-3.1-2.11-4.89-2.23.26-.6.63-1.14,1.11-1.62ZM14.9,3.897c2.1-2.1,5.52-2.1,7.63,0l10.72,10.73c1.02,1.02,1.58,2.37,1.58,3.81s-.56,2.8-1.58,3.82c-1.89,1.89-4.85,2.09-6.95.57.53-1.06.81-2.23.81-3.44,0-2.06-.8-4-2.26-5.46l-6.17-6.18c-1.32-1.32-3.05-2.11-4.89-2.23.26-.59.63-1.14,1.11-1.62Z"/>
</svg>