<?xml version="1.0" encoding="UTF-8"?>
<svg id="Layer_1" xmlns="http://www.w3.org/2000/svg" version="1.1" viewBox="0 0 758.236 1019.623">
  <!-- Generator: Adobe Illustrator 29.7.1, SVG Export Plug-In . SVG Version: 2.1.1 Build 8)  -->
  <defs>
    <style>
      .st0 {
        fill: #392fc6;
      }
    </style>
  </defs>
  <path class="st0" d="M373.691,914.522c4.745-5.364,11.648-14.441,13.458-21.397,5.271-20.261-19.422-65.471-34.914-78.73-18.615-15.932-24.391-12.475-44.7-1.788-9.25,4.868-16.718,12.001-25.032,17.88-9.509,5.385-19.131,10.635-28.608,16.092-8.158,4.698-15.345,9.66-23.244,14.304-5.975,2.525-18.123,6.009-21.456,10.728-25.138,10.6-51.147,19.567-76.884,28.608l-25.03,3.595c2.083,4.685,7.478,7.428,10.726,10.709.593.599,1.193,1.191,1.788,1.788,1.206,1.208,2.352,2.373,3.576,3.576,3.048,2.996,5.74,5.959,8.94,8.94.615.573,1.168,1.217,1.788,1.788.617.569,1.164,1.222,1.788,1.788.621.563,1.156,1.23,1.788,1.788,4.455,3.932,8.416,8.573,13.38,12.024,18.506-6.613,37.449-12.761,55.243-21.179,12.186-5.764,22.17-12.347,33.293-19.453,7.167-3.585,14.492-6.644,21.456-10.728,14.823-8.693,33.496-19.738,46.488-30.396,8.884-5.533,14.079-2.864,21.456,3.576.556.616,1.323,1.164,1.788,1.788.513.688,1.468,1.24,1.788,1.788,8.195,21.512-9.098,25.261-21.456,37.548-.449.256-1.341-.259-1.788,0-7.876,4.554-15.41,9.651-23.244,14.304-16.697,9.917-33.788,20.541-51.852,28.608-13.481,6.02-28.762,11.745-42.913,16.107-.848,5.703,4.78,5.59,7.153,7.137,5.672,3.699,11.118,7.361,17.88,8.94.566.132,1.23-.143,1.788,0,7.803,3.705,24.989,14.281,33.112,14.123,5.75-.112,26.569-13.959,33.044-17.699,3.834-2.214,7.108-4.925,10.728-7.152,13.922-8.567,27.887-16.801,41.124-26.82,12.177-9.216,27.736-21.091,37.548-32.184Z"/>
  <path class="st0" d="M533.664,641.011c-5.848-1.937-11.118-5.265-16.933-7.205-5.777-4.837-8.98-7.225-12.516-14.304-2.502-5.01-7.152-20.883-7.152-25.926v-196.68c0-2.765-2.877-10.28-3.576-13.41,2.197-23.117-7.519-48.893-20.928-67.419-1.846-2.551-2.737-3.296-5.892-4.101-.7-1.621-.54-1.779-1.788-3.576-1.021-1.471-1.758-2.907-3.576-3.576-.54-.643-1.214-1.177-1.788-1.788-1.338-1.424-1.725-2.17-3.576-3.576-4.302-3.266-13.561-9.958-17.88-12.516-33.886-20.07-79.974-21.289-114.432-1.788-2.472.993-7.101,2.587-8.94,3.576-7.175,3.859-12.562,10.189-17.88,16.092-.561.622-1.243,1.149-1.788,1.788-11.156,13.091-28.608,40.689-28.608,58.11v40.23l44.709-1.779c-1.203-25.909,1.894-49.407,23.235-66.165,27.418-21.531,55.727-15.647,85.824-5.364,3.341,5.6,3.648,4.581,8.94,8.94,1.526,2.565,3.653,4.699,5.364,7.152,2.984,4.277,3.359,5.805,7.152,7.152,22.19,75.922.607,176.084,12.516,253.896.863,5.636,1.055,9.961,3.214,15.563,2.136,5.542,9.055,18.827,12.878,20.197,2.111,8.123,3.495,8.36,8.94,14.304,2.163,2.361,8.583,8.942,10.728,10.728,10.441,8.692,39.469,23.244,52.746,23.244h211.878l1.788-46.488h-202.938c-2.261,0-16.339-4.191-19.721-5.311Z"/>
  <polygon class="st0" points="532.823 606.987 579.311 606.987 579.311 476.463 531.035 476.463 532.823 606.987"/>
  <path class="st0" d="M495.275,716.055c-.508-.212-1.287.217-1.788,0-.116-.05-.44-1.193-1.788-1.788-.499-.22-1.292.223-1.788,0-.599-3.416-3.965-2.699-5.364-3.576-10.996-6.896-20.593-14.788-30.396-23.244-1.18-1.093-2.285-2.382-3.576-3.576l-4.328-4.328c-.95-.985-1.881-1.944-2.824-2.824-.613-.573-1.161-1.217-1.788-1.788-3.36-3.118-14.882-16.326-17.787-17.126-6.621-1.825-24.9,7.015-33.364,7.993-21.541,2.49-37.232-5.911-56.104-14.11-4.099,12.864-12.139,24.621-19.694,35.759-3.683,5.43-10.303,14.815-14.304,19.668-9.778,11.86-26.133,26.037-37.548,37.548-2.127.716-7.484,2.507-8.549,4.023-.844,1.202-.163,2.775-.391,3.129-9.02,4.018-15.363,10.19-23.244,16.092-.46.234-1.27-.221-1.788,0-17.117,7.32-35.931,21.608-53.84,29.302-13.784,5.922-29.168,8.861-42.712,15.398-27.268,1.346-58.798,16.015-87.594,7.153-2.388,3.115,14.974,26.241,17.862,30.395,1.737,2.498,3.592,4.735,5.364,7.152,1.613,2.2,4.789,10.313,6.625,10.76,48.775.57,101.621-18.6,144.226-41.482,2.497-1.341,5.657-.701,4.705-5.038,3.031-1.448,6.431-2.359,8.94-3.576,16.943-8.218,33.118-19.248,48.276-30.396,24.491-18.012,46.86-36.997,66.156-60.792,5.318-6.557,12.075-14.804,16.871-21.571,2.612-3.686,10.555-20.295,11.737-21.341,2.829-2.503,7.729-.941,10.728,0,.591.185,1.386-.229,1.788,0,.554.317,1.147,1.254,1.788,1.788,3.95,3.291,13.486,12.218,17.111,15.966,2.79,2.885,3.537,6.413,7.921,10.854,2.343,2.374,4.858,4.778,7.152,7.152,1.223,1.265,2.312,2.353,3.576,3.576.605.586,1.166,1.218,1.788,1.788,1.126,1.033,2.077,2.262,3.576,3.576,1.263,1.107,2.31,2.512,3.576,3.576,5.568,4.68,11.94,8.35,17.88,12.516,6.107,4.283,7.67,10.303,17.88,10.728.583.024,1.208.043,1.788,0,8.178,9.104,23.631,14.01,35.374,17.372,22.365,6.404,43.714,6.599,66.292,9.703-3.317,23.519,10.845,47.188,28.952,60.932,2.356,1.788,3.698,3.149,7.057,3.181,8.664,9.793,35.121,17.757,48.276,19.668,7.557,1.098,19.874,2.894,26.772.759,5.72-1.771,17.753-21.539,21.504-27.579,1.764-2.841,10.826-15.661,8.94-17.867-20.84-5.596-65.264,5.572-78.369-15.515-4.848-7.8-6.254-17.547,1.485-23.834l93.582-2.076c5.13-1.751,14.541-38.982,15.486-46.2h-195.786c-15.205,0-41.873-11.847-56.322-17.88Z"/>
  <path class="st0" d="M114.432,383.487c1.244-1.23,2.356-2.282,3.576-3.576,1.891-2.004,2.366-3.818,3.576-5.364,21.057-26.892,19.483-48.388,30.814-79.148,4.969-13.488,11.936-28.293,19.25-40.648,6.215-10.499,16.849-24.966,25.032-33.972.975-1.073,2.401-2.348,3.576-3.576,1.102-1.152,2.425-2.435,3.576-3.576,3.608-3.574,8.645-7.289,12.516-10.728,2.643-2.348,5.279-5.595,7.152-7.152,2.692-2.238,7.723-4.597,11.1-7.253,3.016-2.371,9.922-6.996,10.356-10.627.551-.155,1.228.143,1.788,0,14.345-3.659,33.937-16.979,49.754-22.66,32.891-11.814,67.387-14.884,102.226-13.1.594.03,1.194-.037,1.788,0,45.918,2.831,89.178,20.909,127.291,45.307,7.55,4.833,12.209,11.725,21.112,15.485,1.753,3.484.607,6.285,7.152,5.364,2.211,2.773,2.952,3.212,5.364,5.364l12.965,19.268c1.239.845,2.813.185,3.127.4,3.286,7.503,5.974,9.132,8.94,14.304,11.666,20.341,20.863,39.755,26.82,62.58.915,3.505.098,7.941,3.576,10.728.171,9.43,1.496,18.804,1.788,28.608.159,5.347-.133,10.756.004,16.104,1.183.084,2.385-.069,3.572-.012,14.814.717,29.876-.533,44.709.009,2.632-40.36-7.903-78.823-25.041-114.441-5.099-10.597-10.828-24.306-19.668-32.184-6.278-10.259-11.749-17.721-19.668-26.82-.553-.635-1.229-1.164-1.788-1.788-.562-.627-1.223-1.168-1.788-1.788-6.246-6.85-12.052-14.197-19.668-19.668-1.205-1.201-2.344-2.376-3.576-3.576-.603-.588-1.17-1.214-1.788-1.788-3.647-3.386-6.905-5.882-10.728-8.94-86.75-69.383-203.908-81.792-303.96-35.76-5.264,2.422-14.21,5.241-17.88,7.152-6.416,3.342-21.376,11.351-23.244,16.092-7.662,4.408-12.679,6.897-19.668,12.516-18.068,14.526-44.721,40.811-57.216,60.792-2.162,3.457-5.428,7.474-7.152,10.728-.247.465.25,1.327,0,1.788-7.964,6.145-10.173,16.569-14.304,25.032-16.073,32.925-18.795,55.836-30.396,87.612-.237.65-1.208,2.208-1.788,3.576-.099.233-.354,1.23-1.617,3.496-.6,1.076-2.904,3.648-3.747,5.444-11.13,2.882-20.065,7.285-32.184,5.364-.083-55.171,21.391-116.364,51.406-162.26,5.137-7.855,15.012-15.691,16.538-25.48,2.581-2.798,6.424-6.373,8.94-8.94l12.516-12.516c1.245-1.177,2.381-2.456,3.576-3.576,4.559-4.276,9.518-8.473,14.304-12.516,19.17-16.192,41.052-33.357,62.58-44.7,29.711-15.654,70.482-29.113,103.704-33.972,11.625-1.7,25.815-3.06,37.548-3.576,63.237-2.783,136.683,12.346,191.316,44.7,9.253,5.48,46.009,34.956,50.064,35.76l7.152,7.152c2.675,3.194,4.854,4.703,7.152,7.152,1.833,1.954,3.517,3.514,5.364,5.364,1.772,1.775,3.617,3.589,5.364,5.364,2.18,2.215,3.499,5.899,7.152,7.152,8.874,12.014,20.158,25.82,28.608,39.336,5.898,9.434,13.129,22.171,17.88,32.184,18.877,39.785,27.44,86.621,26.82,130.524h48.276c1.497-64.837-18.151-127.583-50.382-183.02-.963-1.657-2.959-2.431-3.258-2.932-12.567-21.058-22.396-35.19-39.336-53.64-2.005-2.183-3.304-3.388-5.364-5.364-3.185-3.055-4.934-5.651-8.94-8.94l-3.576-3.576c-.506-.661-1.231-1.17-1.788-1.788-2.113-2.345-2.943-3.234-5.364-5.364-18.223-16.034-43.321-35.168-64.368-48.276-3.803-2.369-24.134-13.881-26.82-14.304-.582-.092-1.209.099-1.788,0-14.181-8.35-29.842-14.602-45.528-19.734C452.791,3.283,405.124-2.32,355.811.856c-68.532,4.413-137.034,25.472-191.316,67.944-4.955,2.968-11.114,7.362-16.092,10.728-5.022,3.396-6.567,5.325-10.728,8.94-.639.555-1.173,1.217-1.788,1.788-.348.323-2.728,1.094-5.364,3.576-1.827,1.721-3.528,5.333-5.364,7.152-5.362-1.512-4.616,1.585-6.501,3.31-19.363,17.719-36.252,37.187-50.715,59.27-4.282,6.538-8.665,12.831-12.516,19.668-19.732,28.386-34.983,65.165-43.145,99.001C2.498,322.8,1.792,361.847,0,403.155h70.626c15.285,0,33.356-9.333,43.806-19.668Z"/>
  <path class="st0" d="M193.104,746.451c32.246-18.164,62.478-42.563,82.248-75.096,18.869-21.607,27.169-53.882,30.396-82.248,3.587-31.534,9.944-101.06-5.654-127.552-14.443-24.53-49.483-24.925-71.23-10.124-.485-.115-1.138-1.367-1.788-1.788.458-18.751-.585-37.633-.082-56.392.329-12.257.55-24.222,1.87-36.583,2.627-24.602,8.352-46.267,23.244-66.156,6.921-6.267,13.235-12.921,19.668-19.668,1.229-1.289,1.221,2.81,3.576-3.576l28.608-16.092c18.249-7.851,37.135-14.61,57.216-16.092,34.532-2.548,67.519,4.548,98.34,19.668,9.266,4.546,18.157,9.941,26.82,16.092,1.496,4.237,6.613,6.29,8.94,8.94,5.799,6.604,6.429,11.32,14.304,16.092,10.817,21.953,24.511,44.229,23.244,69.732h46.488c.838-28.462-8.803-58.938-22.907-83.479-3.79-6.595-5.453-9.623-11.065-13.073-7.543-15.674-14.358-19.313-26.82-30.396-.85-.756-2.699-1.033-3.576-1.788l-.778-.778c-.324-.351-.646-.706-1.01-1.01-.635-.53-1.135-1.256-1.788-1.788-1.472-1.201-4.369-5.496-8.94-8.94-5.29-3.985-11.657-8.289-17.88-10.728-.831-.326-2.2-1.197-3.576-1.788-6.273-6.225-17.932-10.796-26.344-13.886-26.842-9.86-70.783-16.093-98.816-11.146-2.175.384-3.283,1.725-3.576,1.788-3.483.28-7.325-.403-10.728,0-25.513,3.023-55.238,16.048-73.308,30.396-.738.586-8.153-.102-8.94,5.364-11.527,3.523-51.49,42.894-53.64,55.428-.96,2.31-4.248,3.231-5.315,4.922-34.885,55.289-10.865,211.143-17.947,282.034-1.501,15.025-9.195,25.103-14.287,38.459-1.917,1.327-2.653,2.866-3.576,3.576-1.954,1.502-2.403-2.609-3.576,3.576-1.304.644-1.981.74-3.576,1.788-7.449,4.897-13.07,9.862-21.456,14.304-39.923,21.148-90.596,26.331-134.092,14.3l1.866,49.987c59.21,13.321,134.275-1.364,180.501-41.043,6.544-5.617,12.428-11.174,17.88-17.88,17.955-22.087,25.084-45.622,26.895-74.127,1.433-22.556-4.779-48.512,5.289-68.913l2.371-.05c2.017-4.84,3.365-2.835,6.568-3.526,7.888-1.7,10.141-.954,17.88,1.788.538.566,1.593,1.45,1.788,1.788,1.323,10.511,2.093,20.708,1.874,31.374-.817,39.824-3.107,76.654-19.754,113.453-.418.238-1.928-.343-2.924.584-1.368,1.275-4.653,10.429-7.03,13.6-4.153,5.541-10.397,12.752-15.078,18-.931,1.043-2.363,2.273-3.576,3.576l-1.788,1.788c-.573.614-1.207,1.178-1.788,1.788l-1.788,1.788c-.588.603-1.193,1.192-1.788,1.788l-3.576,3.576c-1.645,1.6-8.029,5.869-10.728,8.94-5.57,2.489-6.157-.294-7.152,5.364-5.301.751-15.481,4.744-16.092,10.728-.568.153-1.262-.17-1.788,0-25.421,8.226-45.263,18.544-72.718,24.818-3.235.739-7.014-1.737-5.954,3.79-5.249.694-10.818,1.403-16.092,1.788-1.865-3.342-6.427-1.58-9.294-1.284-19.632,2.027-35.735.819-55.073-2.274,4.704,10,8.855,39.035,15.182,46.486,1.342,1.58,14.658,3.294,17.915,3.541,51.97,3.952,104.613-12.37,149.279-37.529Z"/>
  <rect class="st0" x="531.035" y="408.519" width="48.276" height="42.912"/>
  <path class="st0" d="M755.284,562.087l-84.785.2c-.933-10.363,3.193-6.975,7.863-12.697,23.224-28.457,46.526-59.249,68.404-88.043,1.686-2.219,7.411-8.725,7.769-10.115,3.949-13.494.8-28.901,1.788-42.912h-150.192v42.912h76.884c.278.142-.277,1.53,0,1.788.883,4.231-1.687,5.464-3.544,8.075-6.037,8.491-12.472,16.801-18.735,25.112-1.27,1.685-4.2,1.539-2.753,6.149-1.246.928-2.262,2.598-3.576,3.576v1.788c-.622.289-1.146,1.367-1.788,1.788-.73.479-3.509-.138-4.354,1.824l-15.314,23.208c-.607.593-1.197,1.179-1.788,1.788-8.678,8.939-19.594,23.02-25.032,33.972-.246.495-2.869.627-3.55,4.433-1.351,7.557-.364,24.589-.026,33.115.118,2.975-.114,5.981-.004,8.952,1.782.07,3.58-.066,5.368-.012,4.726.144,9.576.121,14.304,0,2.339-.06,4.866.257,7.152,0,3.395-.382,4.089,1.32,3.576-3.576,2.978,0,5.963-.049,8.94,0,.17,1.652-.957,3.124,1.126,3.612,3.641.852,17.656,1.393,14.966-3.612,1.183.061,2.401-.104,3.576,0-1.549,5.641,5.704,3.427,10.728,3.576,1.19.035,2.385-.024,3.576,0,23.404.465,48.151.658,71.52,0,1.19-.034,2.385.023,3.576,0,.595-.012,1.194.026,1.788,0,1.786-.077,3.589.096,5.368.011.361-15.067.051-30.123-2.831-44.911Z"/>
  <path class="st0" d="M14.424,596.984c14.032,12.655,40.623,11.858,57.492,5.915,9.651-3.4,6.072-3.841,10.332-8.428,2.056-2.214,6.214-7.925,8.94-7.152,3.537,19.508,17.316,21.105,34.933,19.729,31.028-2.424,41.344-27.075,43.716-54.618l3.599-106.363h-35.76l-1.959,104.426c-1.739,12.335-7.103,11.5-17.709,11.793h-1.788c-.526-1.061-1.068-1.204-1.788-1.788-7.498-37.503-.965-76.442-5.364-114.432h-37.548c1.135,17.618,2.117,35.106,1.873,52.831-.144,10.516-1.239,23.907-1.873,34.781-.579,9.929-.768,15.76-5.364,25.032-5.747,1.61-12.704,6.156-18.527,1.938-9.826-7.116-.934-98.247-6.505-114.582H1.788v122.478c0,8.232,4.437,16.123,8.94,22.35,1.292,1.787,1.409,4.026,3.696,6.089Z"/>
  <path class="st0" d="M401.087,376.28c-12.858-8.406-32.535-10.399-45.172-.697-3.452,2.65-3.224,5.688-3.679,6.116-6.177,5.819-5.509,2.534-10.728,12.516-20.253,38.735-24.828,146.578-16.092,189.528,5.184,25.487,18.747,48.937,47.403,51.831,12.804,1.293,34.982-1.207,40.209-14.283,1.076-.559,2.711-.219,4.535-1.658,2.314-1.826,2.996-4.904,4.406-7.282,22.953-38.725,13.544-168.27-2.283-211.377-4.622-12.589-8.042-13.703-17.385-21.062-.15-.118.472-2.53-1.212-3.631Z"/>
  <path class="st0" d="M452.363,969.95c-1.806-1.922-3.68-3.585-5.364-5.364-.581-.614-1.194-1.189-1.788-1.788-2.176-2.192-3.489-5.916-7.152-7.152-2.167-2.958-2.238-3.685-5.364-7.152-1.103-1.224-2.387-2.423-3.576-3.576-.604-.585-1.158-1.231-1.788-1.788l-2.139-2.138c-.611-.646-1.137-1.205-1.438-1.438-.634-.491-1.105-1.307-1.788-1.788-.148-.104-.283-.195-.427-.296-2.205-1.749-7.147-8.5-7.694-8.635-1.463-.359-9.41,5.644-11.547,7.142-19.595,13.739-41.298,34.046-60.792,50.064-4.983,4.094-10.688,5.298-12.516,10.728-4.814,3.008-4.727,2.599-9.579,6.624-2.232,1.852-4.509-1.925-4.725,4.104-.665.346-11.139,1.91-7.159,5.353,2.634,2.279,59.516,7.602,67.503,6.661,3.197-4.659,8.572-8.38,12.964-12.015,4.047-3.349,5.616-4.981,10.621-8.235,2.745-1.785.397-5.668,9.047-4.281,7.02,4.497,12.073,10.227,17.88,16.092,1.306,1.319,1.697,2.053,3.576,3.576.904.732,1.126,3.826,4.024,3.185,6.112-2.334,53.227-8.272,53.156-13.018-11.992-10.916-22.881-23.099-33.936-34.866Z"/>
  <path class="st0" d="M600.767,880.55c-7.946-4.277-15.324-9.535-21.456-14.304-2.587-4.597-6.733-7.525-10.728-10.728-.988-.792-1.273-2.19-3.576-3.576-.68-1.119-1.046-2.507-1.788-3.576-.855-1.233-1.653-3.701-3.576-3.576-5.613-6.689-12.68-23.276-20.132-27.25-4.376-2.333-37.795-9.779-43.607-10.171-4.8-.324-8.108-.422-7.065,5.287,3.286,17.989,22.977,50.054,35.044,64.317,5.457,6.45,11.002,12.865,17.88,17.88.584.609,1.191,1.192,1.788,1.788l1.788,1.788c.601.59,1.18,1.203,1.788,1.788,1.199,1.153,2.103,2.265,3.576,3.576,3.315,2.952,5.294,4.57,8.94,7.152,7.459,5.283,17.593,12.363,25.579,16.439,4.853,2.477,25.246,11.848,29.104,12.21,4.393.412,11.114-7.409,15.049-10.768,1.611-1.376,2.369-2.423,3.576-3.576,1.878-1.794,3.588-3.452,5.364-5.364,1.734-1.867,3.232-2.52,5.364-5.364,2.171-1.271,13.827-12.832,12.507-14.293-18.674-3.458-38.688-10.674-55.419-19.679Z"/>
  <path class="st0" d="M504.215,910.946c-9.354-9.808-22.9-28.905-28.608-41.124-11.128-23.819-10.486-60.864-25.032-78.672-8.008-9.804-28.241-27.062-39.336-32.184-.357-2.148-2.717-2.64-3.576-3.576-3.824-4.163-5.681-7.223-10.728-10.728l-6.261-7.12c-1.471.767-1.841,2.365-2.679,3.544-1.052,1.48-1.199,2.571-1.788,3.576-2.98.816-3.76,3.664-5.364,5.364-.576.61-1.198,1.188-1.788,1.788-.591.601-1.197,1.186-1.788,1.788-1.179,1.2-2.383,2.348-3.576,3.576-1.174,1.208-2.381,2.32-3.576,3.576-5.922,6.222-11.803,12.561-17.846,18.774-.006,1.645,16.614,8.401,19.634,9.834,1.125.534,2.447,1.211,3.576,1.788l23.244,16.092c.576.607,1.249,1.157,1.788,1.788,21.843,25.534,15.219,57.726,33.972,84.036.211.509-.215,1.284,0,1.788,6.834,16.021,22.05,32.139,33.972,44.7,1.154,1.216,2.391,2.384,3.576,3.576.594.598,1.191,1.193,1.788,1.788s1.185,1.198,1.788,1.788l.984.984c.846.86,1.672,1.722,2.592,2.592.611.578,1.174,1.21,1.788,1.788.612.576,1.169,1.215,1.788,1.788,8.423,7.787,28.139,26.819,37.548,30.396,5.836,9.533,13.869,3.202,21.456,0,13.36-5.637,29.746-14.564,41.122-23.225-25.104-8.999-49.863-23.353-69.73-41.143-2.312-2.07-6.624-6.511-8.94-8.94Z"/>
</svg>